<svg width="109" height="67" viewBox="0 0 109 67" fill="none" xmlns="http://www.w3.org/2000/svg">
<g filter="url(#filter0_d_1_862)">
<g clip-path="url(#clip0_1_862)">
<rect width="102.195" height="55.4649" rx="3.8638" transform="matrix(0.993213 -0.116306 0.11703 0.993128 0.838379 11.8855)" fill="#F1F7FF" fill-opacity="0.9" shape-rendering="crispEdges"/>
<g filter="url(#filter1_d_1_862)">
<g clip-path="url(#clip1_1_862)">
<rect width="94.6631" height="47.9111" rx="2.31828" transform="matrix(0.993213 -0.116306 0.11703 0.993128 5.12805 15.2732)" fill="white"/>
<path d="M13.8906 23.8721L13.9219 24.1383L12.6145 24.2914L12.5831 24.0252L13.8906 23.8721ZM12.3897 21.8148L12.6806 24.2837L12.3533 24.322L12.0624 21.8532L12.3897 21.8148ZM13.5831 22.7512L13.6145 23.0174L12.48 23.1503L12.4486 22.884L13.5831 22.7512ZM13.6141 21.6715L13.6456 21.9394L12.3551 22.0905L12.3236 21.8226L13.6141 21.6715ZM14.9624 23.7896C15.037 23.7808 15.1042 23.7575 15.1639 23.7196C15.2236 23.6816 15.2707 23.6337 15.3051 23.5758C15.3394 23.5168 15.3554 23.4525 15.3529 23.3828L15.6513 23.3479C15.6585 23.4571 15.6337 23.5626 15.5769 23.6643C15.5211 23.7648 15.4424 23.8503 15.3406 23.9206C15.2387 23.9899 15.1228 24.0321 14.9928 24.0473C14.8549 24.0635 14.7316 24.0533 14.623 24.0167C14.5155 23.98 14.4229 23.9232 14.3451 23.8464C14.2684 23.7694 14.2066 23.6781 14.1598 23.5724C14.1139 23.4655 14.0837 23.3504 14.0692 23.2272L14.0608 23.156C14.0463 23.0327 14.049 22.9144 14.0688 22.8009C14.0897 22.6861 14.1285 22.5825 14.1852 22.4899C14.243 22.3972 14.32 22.3205 14.416 22.26C14.5131 22.1994 14.6307 22.1609 14.7686 22.1448C14.9122 22.128 15.0411 22.1427 15.1555 22.1889C15.2697 22.234 15.3632 22.3032 15.4361 22.3967C15.51 22.4889 15.5572 22.598 15.5778 22.7239L15.2794 22.7589C15.2648 22.6838 15.2352 22.6179 15.1907 22.5612C15.1474 22.5044 15.0919 22.4616 15.0243 22.4329C14.9578 22.4029 14.8826 22.3927 14.799 22.4025C14.7029 22.4138 14.6243 22.4425 14.5633 22.4886C14.5032 22.5334 14.4578 22.5903 14.4269 22.6593C14.3971 22.7269 14.3783 22.8008 14.3705 22.8807C14.3637 22.9595 14.3651 23.039 14.3746 23.1192L14.3829 23.1904C14.3924 23.2707 14.4096 23.3489 14.4347 23.4251C14.4597 23.5012 14.4946 23.5687 14.5393 23.6277C14.5852 23.6865 14.6427 23.7313 14.7116 23.7622C14.7816 23.7918 14.8652 23.801 14.9624 23.7896ZM15.8923 22.9982L15.8877 22.9592C15.8721 22.827 15.8769 22.7021 15.902 22.5845C15.927 22.4658 15.9707 22.3604 16.0332 22.2683C16.0956 22.1751 16.1755 22.0992 16.2729 22.0408C16.3702 21.9813 16.4827 21.9441 16.6104 21.9291C16.7393 21.914 16.858 21.9242 16.9665 21.9596C17.0759 21.9938 17.1718 22.049 17.2542 22.1253C17.3375 22.2004 17.4051 22.2927 17.457 22.4024C17.5088 22.511 17.5425 22.6314 17.5581 22.7636L17.5626 22.8026C17.5782 22.9349 17.5735 23.0598 17.5484 23.1773C17.5232 23.2949 17.4789 23.4003 17.4154 23.4937C17.3529 23.5859 17.273 23.6617 17.1758 23.7212C17.0795 23.7795 16.9669 23.8161 16.838 23.8312C16.7091 23.8463 16.5905 23.8367 16.4822 23.8024C16.3737 23.767 16.2778 23.7118 16.1945 23.6367C16.1121 23.5604 16.0451 23.468 15.9933 23.3594C15.9416 23.2509 15.9079 23.1305 15.8923 22.9982ZM16.2014 22.9225L16.206 22.9615C16.2168 23.0531 16.2377 23.1383 16.2688 23.2171C16.2997 23.2949 16.3404 23.3623 16.3906 23.4195C16.4421 23.4765 16.5027 23.5192 16.5725 23.5477C16.6422 23.5751 16.7206 23.5837 16.8076 23.5735C16.8936 23.5634 16.9667 23.5371 17.027 23.4945C17.0883 23.4507 17.1368 23.3951 17.1724 23.3279C17.208 23.2607 17.2319 23.1857 17.2439 23.103C17.2569 23.0189 17.258 22.9311 17.2472 22.8396L17.2426 22.8006C17.232 22.7101 17.2106 22.6261 17.1785 22.5485C17.1475 22.4696 17.1062 22.4017 17.0548 22.3447C17.0044 22.2864 16.9443 22.243 16.8744 22.2145C16.8057 22.1859 16.7279 22.1767 16.6408 22.1869C16.5549 22.1969 16.4813 22.2239 16.42 22.2677C16.3598 22.3114 16.3114 22.3675 16.2748 22.436C16.2391 22.5032 16.2154 22.5788 16.2035 22.6627C16.1914 22.7454 16.1908 22.8321 16.2014 22.9225ZM18.2092 22.1459L18.3825 23.616L18.0671 23.6529L17.8509 21.8182L18.1493 21.7833L18.2092 22.1459ZM18.2017 22.6367L18.0553 22.6487C18.0417 22.5231 18.0444 22.4053 18.0635 22.2953C18.0825 22.1842 18.1185 22.0854 18.1713 21.999C18.2242 21.9126 18.2944 21.8425 18.3821 21.7887C18.4696 21.7338 18.5744 21.6991 18.6965 21.6848C18.7824 21.6748 18.863 21.6779 18.9383 21.6943C19.0134 21.7096 19.0806 21.7401 19.1399 21.7859C19.1991 21.8317 19.2483 21.8936 19.2873 21.9715C19.3262 22.0495 19.3525 22.1461 19.3661 22.2614L19.5102 23.4839L19.1965 23.5207L19.0542 22.3134C19.0429 22.2173 19.0174 22.1423 18.9778 22.0885C18.9394 22.0346 18.8892 21.9981 18.8274 21.9789C18.7654 21.9587 18.6948 21.9532 18.6157 21.9625C18.523 21.9733 18.4475 21.9988 18.3892 22.0388C18.3309 22.0789 18.2864 22.13 18.2559 22.192C18.2254 22.254 18.2061 22.3233 18.1979 22.3999C18.1907 22.4752 18.192 22.5542 18.2017 22.6367ZM19.3701 22.3245L19.1674 22.4136C19.1567 22.3128 19.1617 22.2143 19.1824 22.1179C19.2043 22.0213 19.2415 21.9333 19.294 21.8538C19.3477 21.7742 19.4173 21.7082 19.5028 21.6557C19.5881 21.6022 19.6891 21.5686 19.8055 21.555C19.9039 21.5435 19.9924 21.5463 20.0713 21.5634C20.1512 21.5804 20.2204 21.613 20.2788 21.6611C20.3382 21.7081 20.3863 21.7717 20.4233 21.8522C20.4603 21.9327 20.4856 22.0306 20.4992 22.1459L20.6413 23.3515L20.3259 23.3884L20.1834 22.1794C20.1713 22.0766 20.1455 21.9988 20.106 21.9461C20.0676 21.8922 20.0176 21.8573 19.9562 21.8416C19.8957 21.8246 19.8254 21.8208 19.7451 21.8302C19.6761 21.8383 19.6165 21.8573 19.5662 21.8873C19.5158 21.9172 19.475 21.9552 19.4438 22.0013C19.4124 22.0462 19.3902 22.0964 19.3773 22.1518C19.3654 22.207 19.3631 22.2646 19.3701 22.3245ZM21.2636 21.7882L21.4368 23.2583L21.1214 23.2953L20.9052 21.4606L21.2036 21.4256L21.2636 21.7882ZM21.2561 22.279L21.1096 22.291C21.096 22.1654 21.0987 22.0476 21.1178 21.9376C21.1368 21.8265 21.1728 21.7278 21.2256 21.6414C21.2785 21.555 21.3487 21.4849 21.4364 21.431C21.5239 21.3761 21.6287 21.3415 21.7508 21.3272C21.8367 21.3171 21.9173 21.3203 21.9926 21.3367C22.0677 21.352 22.1349 21.3825 22.1942 21.4282C22.2535 21.474 22.3026 21.5359 22.3416 21.6138C22.3806 21.6918 22.4068 21.7884 22.4204 21.9037L22.5645 23.1263L22.2508 23.163L22.1085 21.9557C22.0972 21.8596 22.0717 21.7847 22.0322 21.7309C21.9937 21.6769 21.9436 21.6404 21.8817 21.6213C21.8197 21.601 21.7492 21.5955 21.67 21.6048C21.5773 21.6157 21.5018 21.6411 21.4435 21.6812C21.3852 21.7212 21.3408 21.7723 21.3103 21.8343C21.2797 21.8963 21.2604 21.9656 21.2522 22.0422C21.2451 22.1176 21.2463 22.1965 21.2561 22.279ZM22.4244 21.9669L22.2217 22.0559C22.211 21.9552 22.216 21.8566 22.2368 21.7602C22.2586 21.6637 22.2958 21.5756 22.3483 21.4962C22.402 21.4165 22.4716 21.3505 22.5571 21.2981C22.6425 21.2445 22.7434 21.2109 22.8598 21.1973C22.9582 21.1858 23.0468 21.1886 23.1256 21.2057C23.2055 21.2227 23.2747 21.2553 23.3331 21.3035C23.3925 21.3504 23.4407 21.4141 23.4777 21.4946C23.5146 21.575 23.5399 21.6729 23.5535 21.7882L23.6956 22.9938L23.3802 23.0308L23.2377 21.8218C23.2256 21.7189 23.1998 21.6411 23.1604 21.5884C23.1219 21.5345 23.072 21.4997 23.0105 21.4839C22.95 21.4669 22.8797 21.4632 22.7994 21.4726C22.7305 21.4806 22.6708 21.4996 22.6205 21.5296C22.5701 21.5596 22.5293 21.5976 22.4981 21.6436C22.4667 21.6886 22.4445 21.7387 22.4316 21.7941C22.4198 21.8494 22.4174 21.9069 22.4244 21.9669ZM24.9445 22.882C24.8167 22.8969 24.6983 22.889 24.5893 22.8582C24.4812 22.8262 24.3852 22.775 24.3013 22.7046C24.2184 22.6341 24.1509 22.5469 24.0985 22.443C24.0461 22.3391 24.0124 22.2227 23.9972 22.0938L23.9888 22.0226C23.9712 21.8734 23.9776 21.738 24.008 21.6164C24.0382 21.4937 24.0864 21.3872 24.1526 21.2969C24.2187 21.2066 24.2974 21.135 24.3885 21.0819C24.4797 21.0288 24.5767 20.9963 24.6796 20.9842C24.8107 20.9689 24.9265 20.9782 25.0268 21.0123C25.1282 21.0463 25.2142 21.1004 25.2849 21.1746C25.3554 21.2477 25.4118 21.3374 25.4541 21.4436C25.4963 21.5487 25.5249 21.6657 25.5401 21.7945L25.5567 21.9353L24.1865 22.0957L24.1564 21.8397L25.2128 21.716L25.21 21.6922C25.1959 21.6114 25.1696 21.5342 25.1312 21.4608C25.0939 21.3872 25.0412 21.3292 24.9731 21.2868C24.9051 21.2443 24.8174 21.2294 24.71 21.242C24.6388 21.2503 24.575 21.2732 24.5187 21.3108C24.4622 21.3472 24.416 21.3973 24.3799 21.4611C24.3439 21.5249 24.319 21.6006 24.3053 21.6882C24.2915 21.7757 24.2912 21.8749 24.3042 21.9857L24.3126 22.0569C24.3229 22.1439 24.3444 22.2245 24.3772 22.2986C24.411 22.3714 24.4545 22.4339 24.5076 22.4862C24.5619 22.5383 24.6243 22.5768 24.6949 22.6018C24.7666 22.6266 24.8454 22.634 24.9313 22.6239C25.0421 22.611 25.1332 22.5774 25.2048 22.5231C25.2763 22.4689 25.3365 22.4006 25.3852 22.3181L25.5929 22.4467C25.5604 22.5113 25.5168 22.5743 25.4622 22.6357C25.4075 22.6971 25.3375 22.75 25.2522 22.7944C25.168 22.8386 25.0655 22.8678 24.9445 22.882ZM26.1609 21.1374L26.3431 22.6838L26.0294 22.7205L25.8132 20.8858L26.1184 20.8501L26.1609 21.1374ZM26.6989 20.7718L26.7316 21.0637C26.7049 21.0611 26.6796 21.0606 26.6558 21.0622C26.6329 21.0626 26.6067 21.0645 26.5774 21.068C26.505 21.0764 26.4425 21.0952 26.3897 21.1243C26.337 21.1534 26.2938 21.1906 26.2602 21.2358C26.2265 21.281 26.2017 21.3331 26.1858 21.3923C26.1708 21.4502 26.1639 21.5129 26.165 21.5804L26.0828 21.6416C26.0697 21.5308 26.0682 21.4256 26.0782 21.3258C26.0894 21.226 26.1137 21.136 26.1513 21.056C26.1887 20.9748 26.2406 20.9091 26.3069 20.859C26.3742 20.8076 26.4576 20.776 26.557 20.7644C26.5797 20.7617 26.606 20.7615 26.6361 20.7637C26.666 20.7648 26.6869 20.7675 26.6989 20.7718ZM27.8889 22.2759C27.9636 22.2671 28.0307 22.2438 28.0904 22.2059C28.1502 22.1679 28.1972 22.12 28.2317 22.0621C28.266 22.0031 28.2819 21.9388 28.2794 21.8691L28.5779 21.8342C28.585 21.9434 28.5602 22.0489 28.5034 22.1506C28.4476 22.2511 28.3689 22.3366 28.2671 22.4069C28.1653 22.4762 28.0493 22.5184 27.9193 22.5336C27.7814 22.5498 27.6581 22.5396 27.5495 22.503C27.442 22.4663 27.3494 22.4095 27.2716 22.3327C27.1949 22.2557 27.1331 22.1644 27.0863 22.0587C27.0404 21.9518 27.0103 21.8367 26.9957 21.7135L26.9874 21.6423C26.9728 21.519 26.9755 21.4007 26.9954 21.2872C27.0162 21.1724 27.055 21.0688 27.1117 20.9762C27.1696 20.8835 27.2465 20.8068 27.3425 20.7463C27.4397 20.6856 27.5572 20.6472 27.6951 20.6311C27.8387 20.6143 27.9677 20.629 28.082 20.6752C28.1962 20.7203 28.2897 20.7895 28.3626 20.883C28.4365 20.9752 28.4838 21.0843 28.5043 21.2102L28.2059 21.2451C28.1913 21.1701 28.1618 21.1042 28.1173 21.0475C28.0739 20.9907 28.0184 20.9479 27.9508 20.9192C27.8843 20.8891 27.8092 20.879 27.7255 20.8888C27.6294 20.9001 27.5508 20.9288 27.4898 20.9749C27.4298 21.0197 27.3843 21.0766 27.3535 21.1456C27.3236 21.2132 27.3048 21.2871 27.297 21.367C27.2903 21.4458 27.2916 21.5253 27.3011 21.6055L27.3095 21.6767C27.3189 21.757 27.3362 21.8352 27.3612 21.9113C27.3862 21.9875 27.4211 22.055 27.4659 22.114C27.5118 22.1728 27.5692 22.2176 27.6382 22.2485C27.7081 22.2781 27.7917 22.2873 27.8889 22.2759ZM29.773 22.3165C29.6453 22.3315 29.5269 22.3236 29.4178 22.2928C29.3097 22.2608 29.2137 22.2096 29.1298 22.1392C29.047 22.0686 28.9794 21.9814 28.927 21.8775C28.8747 21.7737 28.8409 21.6573 28.8257 21.5284L28.8173 21.4572C28.7997 21.308 28.8061 21.1726 28.8365 21.051C28.8667 20.9282 28.9149 20.8217 28.9811 20.7315C29.0472 20.6412 29.1259 20.5696 29.2171 20.5165C29.3082 20.4634 29.4053 20.4308 29.5081 20.4188C29.6393 20.4034 29.755 20.4128 29.8553 20.4469C29.9567 20.4809 30.0427 20.535 30.1134 20.6092C30.1839 20.6823 30.2403 20.772 30.2826 20.8782C30.3248 20.9833 30.3535 21.1002 30.3687 21.2291L30.3852 21.3699L29.015 21.5303L28.9849 21.2743L30.0413 21.1505L30.0386 21.1268C30.0244 21.0459 29.9982 20.9688 29.9597 20.8954C29.9224 20.8218 29.8697 20.7638 29.8017 20.7213C29.7336 20.6789 29.6459 20.664 29.5385 20.6765C29.4673 20.6849 29.4035 20.7078 29.3472 20.7453C29.2907 20.7818 29.2445 20.8319 29.2085 20.8957C29.1724 20.9595 29.1475 21.0352 29.1338 21.1227C29.12 21.2103 29.1197 21.3095 29.1327 21.4203L29.1411 21.4915C29.1514 21.5785 29.1729 21.6591 29.2057 21.7332C29.2395 21.806 29.283 21.8685 29.3361 21.9207C29.3904 21.9728 29.4528 22.0114 29.5234 22.0363C29.5951 22.0612 29.6739 22.0686 29.7598 22.0585C29.8706 22.0455 29.9618 22.0119 30.0333 21.9577C30.1049 21.9035 30.165 21.8351 30.2137 21.7527L30.4214 21.8813C30.3889 21.9459 30.3454 22.0088 30.2907 22.0703C30.236 22.1317 30.1661 22.1846 30.0807 22.2289C29.9966 22.2732 29.894 22.3024 29.773 22.3165ZM32.436 21.7434C32.5106 21.7347 32.5777 21.7113 32.6375 21.6734C32.6972 21.6355 32.7442 21.5875 32.7787 21.5297C32.813 21.4706 32.8289 21.4063 32.8264 21.3367L33.1249 21.3017C33.132 21.4109 33.1072 21.5164 33.0504 21.6182C32.9947 21.7187 32.9159 21.8041 32.8142 21.8745C32.7123 21.9437 32.5963 21.9859 32.4663 22.0011C32.3284 22.0173 32.2051 22.0071 32.0965 21.9705C31.9891 21.9338 31.8964 21.8771 31.8186 21.8002C31.7419 21.7233 31.6801 21.6319 31.6333 21.5263C31.5875 21.4193 31.5573 21.3042 31.5428 21.181L31.5344 21.1098C31.5199 20.9866 31.5225 20.8682 31.5424 20.7547C31.5632 20.64 31.602 20.5363 31.6587 20.4437C31.7166 20.351 31.7935 20.2744 31.8895 20.2138C31.9867 20.1532 32.1042 20.1148 32.2421 20.0986C32.3857 20.0818 32.5147 20.0965 32.629 20.1427C32.7432 20.1878 32.8367 20.2571 32.9096 20.3505C32.9836 20.4427 33.0308 20.5518 33.0514 20.6777L32.7529 20.7127C32.7383 20.6376 32.7088 20.5717 32.6643 20.5151C32.6209 20.4583 32.5654 20.4155 32.4979 20.3867C32.4313 20.3567 32.3562 20.3466 32.2725 20.3564C32.1764 20.3676 32.0979 20.3963 32.0368 20.4424C31.9768 20.4873 31.9313 20.5442 31.9005 20.6131C31.8706 20.6808 31.8518 20.7546 31.8441 20.8346C31.8373 20.9133 31.8386 20.9928 31.8481 21.0731L31.8565 21.1443C31.8659 21.2245 31.8832 21.3027 31.9082 21.3789C31.9332 21.455 31.9681 21.5226 32.0129 21.5815C32.0588 21.6403 32.1162 21.6852 32.1852 21.716C32.2551 21.7457 32.3387 21.7548 32.436 21.7434ZM33.3658 20.9521L33.3612 20.9131C33.3457 20.7808 33.3504 20.6559 33.3755 20.5384C33.4005 20.4197 33.4443 20.3143 33.5068 20.2222C33.5691 20.1289 33.649 20.0531 33.7464 19.9947C33.8437 19.9352 33.9562 19.8979 34.084 19.883C34.2129 19.8679 34.3315 19.878 34.44 19.9135C34.5495 19.9476 34.6454 20.0029 34.7277 20.0792C34.8111 20.1542 34.8787 20.2466 34.9306 20.3563C34.9823 20.4648 35.016 20.5852 35.0316 20.7175L35.0362 20.7565C35.0518 20.8887 35.047 21.0136 35.0219 21.1312C34.9968 21.2487 34.9525 21.3542 34.889 21.4476C34.8265 21.5397 34.7466 21.6155 34.6493 21.675C34.553 21.7333 34.4404 21.77 34.3116 21.7851C34.1827 21.8002 34.0641 21.7906 33.9557 21.7563C33.8473 21.7208 33.7514 21.6656 33.668 21.5905C33.5857 21.5142 33.5186 21.4218 33.4669 21.3133C33.4151 21.2047 33.3814 21.0843 33.3658 20.9521ZM33.675 20.8763L33.6796 20.9153C33.6903 21.0069 33.7113 21.0921 33.7424 21.171C33.7733 21.2487 33.8139 21.3162 33.8642 21.3733C33.9156 21.4303 33.9762 21.4731 34.0461 21.5016C34.1158 21.5289 34.1941 21.5375 34.2812 21.5273C34.3671 21.5173 34.4402 21.4909 34.5005 21.4484C34.5618 21.4045 34.6103 21.349 34.6459 21.2818C34.6816 21.2146 34.7054 21.1396 34.7174 21.0568C34.7304 20.9728 34.7316 20.885 34.7208 20.7934L34.7162 20.7544C34.7055 20.664 34.6842 20.5799 34.6521 20.5023C34.621 20.4235 34.5798 20.3555 34.5284 20.2985C34.4779 20.2402 34.4178 20.1968 34.348 20.1683C34.2793 20.1397 34.2014 20.1305 34.1143 20.1407C34.0284 20.1508 33.9548 20.1777 33.8935 20.2216C33.8333 20.2653 33.7849 20.3214 33.7483 20.3898C33.7127 20.457 33.6889 20.5326 33.677 20.6165C33.665 20.6993 33.6643 20.7859 33.675 20.8763ZM35.6877 20.1266L35.8577 21.5696L35.544 21.6064L35.3278 19.7717L35.6246 19.7369L35.6877 20.1266ZM35.6668 20.5915L35.5356 20.6017C35.522 20.4761 35.527 20.358 35.5506 20.2475C35.5742 20.1359 35.614 20.0367 35.6703 19.9499C35.7265 19.8631 35.7973 19.7929 35.8827 19.7394C35.9691 19.6846 36.0677 19.6507 36.1785 19.6377C36.2689 19.6271 36.3518 19.63 36.4271 19.6464C36.5022 19.6617 36.5684 19.6929 36.6255 19.7401C36.6838 19.7871 36.7315 19.8514 36.7686 19.933C36.8056 20.0135 36.8312 20.1142 36.8454 20.2352L36.9871 21.4374L36.6717 21.4743L36.5296 20.2687C36.5183 20.1726 36.4951 20.0974 36.4601 20.0431C36.4249 19.9876 36.3786 19.95 36.3213 19.9304C36.2638 19.9096 36.1955 19.9039 36.1164 19.9131C36.0384 19.9223 35.9691 19.947 35.9085 19.9873C35.8491 20.0275 35.7996 20.0792 35.76 20.1422C35.7216 20.2052 35.6938 20.2755 35.6765 20.3531C35.6603 20.4295 35.6571 20.509 35.6668 20.5915ZM37.9969 21.0321L38.316 19.4218L38.6365 19.3842L38.193 21.2962L37.9827 21.3208L37.9969 21.0321ZM37.3952 19.5296L38.0962 21.029L38.1642 21.2995L37.9539 21.3242L37.073 19.5673L37.3952 19.5296ZM39.9049 21.1301C39.7771 21.145 39.6587 21.1371 39.5497 21.1064C39.4416 21.0743 39.3456 21.0231 39.2616 20.9527C39.1788 20.8822 39.1112 20.795 39.0589 20.6911C39.0065 20.5872 38.9728 20.4708 38.9576 20.342L38.9492 20.2707C38.9316 20.1215 38.938 19.9861 38.9684 19.8645C38.9986 19.7418 39.0468 19.6353 39.1129 19.545C39.1791 19.4548 39.2578 19.3831 39.3489 19.33C39.4401 19.277 39.5371 19.2444 39.64 19.2323C39.7711 19.217 39.8869 19.2264 39.9871 19.2605C40.0886 19.2944 40.1746 19.3485 40.2452 19.4228C40.3157 19.4959 40.3722 19.5855 40.4145 19.6917C40.4567 19.7968 40.4853 19.9138 40.5005 20.0427L40.5171 20.1834L39.1469 20.3439L39.1167 20.0878L40.1732 19.9641L40.1704 19.9404C40.1563 19.8595 40.13 19.7824 40.0916 19.7089C40.0542 19.6354 40.0016 19.5774 39.9335 19.5349C39.8655 19.4924 39.7778 19.4775 39.6704 19.4901C39.5991 19.4984 39.5354 19.5214 39.479 19.5589C39.4226 19.5953 39.3763 19.6454 39.3403 19.7092C39.3043 19.773 39.2794 19.8487 39.2656 19.9363C39.2519 20.0239 39.2515 20.123 39.2646 20.2338L39.273 20.305C39.2832 20.3921 39.3048 20.4726 39.3376 20.5467C39.3714 20.6195 39.4148 20.6821 39.468 20.7343C39.5223 20.7864 39.5847 20.8249 39.6552 20.8499C39.7269 20.8747 39.8057 20.8821 39.8917 20.8721C40.0025 20.8591 40.0936 20.8255 40.1652 20.7713C40.2367 20.7171 40.2969 20.6487 40.3456 20.5662L40.5533 20.6949C40.5208 20.7594 40.4772 20.8224 40.4226 20.8838C40.3679 20.9452 40.2979 20.9981 40.2126 21.0425C40.1284 21.0867 40.0258 21.1159 39.9049 21.1301ZM41.1213 19.3855L41.3035 20.9319L40.9898 20.9687L40.7736 19.134L41.0788 19.0982L41.1213 19.3855ZM41.6593 19.0199L41.692 19.3118C41.6653 19.3092 41.64 19.3087 41.6161 19.3104C41.5933 19.3107 41.5671 19.3127 41.5377 19.3161C41.4654 19.3246 41.4028 19.3434 41.3501 19.3725C41.2974 19.4016 41.2542 19.4387 41.2205 19.4839C41.1869 19.5291 41.1621 19.5813 41.1462 19.6404C41.1312 19.6983 41.1243 19.761 41.1253 19.8285L41.0432 19.8897C41.0301 19.779 41.0286 19.6737 41.0386 19.574C41.0498 19.4741 41.0741 19.3841 41.1117 19.3041C41.1491 19.2229 41.201 19.1573 41.2673 19.1071C41.3346 19.0557 41.4179 19.0241 41.5174 19.0125C41.54 19.0098 41.5664 19.0096 41.5964 19.0118C41.6264 19.0129 41.6473 19.0156 41.6593 19.0199ZM43.1863 20.2181C43.181 20.1729 43.1659 20.1322 43.141 20.0962C43.1172 20.0589 43.0728 20.028 43.008 20.0035C42.9443 19.9777 42.8505 19.96 42.7267 19.9504C42.6225 19.9409 42.5273 19.9262 42.4413 19.9065C42.3565 19.8866 42.2827 19.8592 42.2202 19.8241C42.1587 19.7889 42.1094 19.7448 42.0722 19.6919C42.035 19.6389 42.012 19.5746 42.003 19.4988C41.9945 19.4265 42.0023 19.3563 42.0263 19.2881C42.0515 19.2198 42.0906 19.1574 42.1435 19.1008C42.1976 19.044 42.2648 18.9966 42.3451 18.9585C42.4254 18.9205 42.517 18.8954 42.6199 18.8834C42.7669 18.8662 42.8954 18.8775 43.0056 18.9173C43.1157 18.9571 43.2036 19.0173 43.2692 19.0979C43.3348 19.1773 43.3737 19.2696 43.3861 19.3747L43.0724 19.4114C43.0664 19.3606 43.0453 19.3132 43.0092 19.2693C42.9741 19.2241 42.9258 19.1891 42.8644 19.1642C42.8042 19.1392 42.7328 19.1315 42.6503 19.1411C42.5632 19.1513 42.4942 19.1732 42.4431 19.2066C42.393 19.2389 42.3579 19.2768 42.3379 19.3204C42.3189 19.3639 42.3121 19.4082 42.3174 19.4534C42.3214 19.4873 42.3307 19.5172 42.3452 19.543C42.3607 19.5676 42.385 19.5893 42.4182 19.6084C42.4513 19.6263 42.4966 19.6416 42.5543 19.6543C42.612 19.6671 42.6849 19.678 42.7731 19.6872C42.9274 19.7035 43.056 19.7297 43.1588 19.7658C43.2617 19.8018 43.3409 19.8516 43.3965 19.915C43.4521 19.9784 43.4857 20.0593 43.4973 20.1576C43.5067 20.2379 43.4984 20.3133 43.4724 20.384C43.4474 20.4545 43.4062 20.5178 43.3486 20.5738C43.292 20.6286 43.2218 20.6746 43.138 20.712C43.0551 20.748 42.96 20.7723 42.8526 20.7849C42.6909 20.8038 42.5507 20.791 42.432 20.7465C42.3133 20.7019 42.2197 20.6373 42.1513 20.5525C42.0828 20.4676 42.0426 20.3744 42.0306 20.2726L42.346 20.2357C42.3607 20.3211 42.3936 20.3866 42.4448 20.4321C42.4959 20.4766 42.5555 20.5057 42.6236 20.5195C42.6916 20.5322 42.7578 20.5347 42.8222 20.5272C42.9081 20.5171 42.9786 20.4974 43.0336 20.468C43.0897 20.4385 43.1307 20.4022 43.1565 20.3591C43.1824 20.316 43.1923 20.269 43.1863 20.2181ZM44.1028 18.7441L44.319 20.5788L44.0036 20.6157L43.7874 18.7811L44.1028 18.7441ZM43.7063 18.2972C43.7003 18.2463 43.7105 18.2016 43.7369 18.163C43.7644 18.1242 43.8087 18.1013 43.8698 18.0941C43.9297 18.0871 43.9776 18.0993 44.0133 18.1306C44.0503 18.1618 44.0717 18.2028 44.0777 18.2537C44.0834 18.3023 44.072 18.3461 44.0433 18.3849C44.0157 18.4226 43.9719 18.4449 43.9119 18.4519C43.8509 18.459 43.8025 18.4475 43.7669 18.4173C43.7322 18.3858 43.7121 18.3458 43.7063 18.2972ZM44.6426 19.6315L44.638 19.5925C44.6224 19.4603 44.6271 19.3354 44.6523 19.2178C44.6772 19.0992 44.721 18.9938 44.7835 18.9016C44.8458 18.8084 44.9257 18.7326 45.0232 18.6742C45.1204 18.6146 45.233 18.5774 45.3607 18.5624C45.4896 18.5474 45.6083 18.5575 45.7167 18.593C45.8262 18.6271 45.9221 18.6824 46.0045 18.7587C46.0878 18.8337 46.1554 18.9261 46.2073 19.0357C46.2591 19.1443 46.2927 19.2647 46.3083 19.397L46.3129 19.4359C46.3285 19.5682 46.3237 19.6931 46.2986 19.8107C46.2735 19.9282 46.2292 20.0337 46.1657 20.1271C46.1032 20.2192 46.0233 20.295 45.926 20.3545C45.8297 20.4128 45.7172 20.4495 45.5883 20.4646C45.4594 20.4797 45.3408 20.47 45.2325 20.4357C45.124 20.4003 45.0281 20.3451 44.9447 20.27C44.8624 20.1937 44.7953 20.1013 44.7436 19.9928C44.6918 19.8842 44.6581 19.7638 44.6426 19.6315ZM44.9517 19.5558L44.9563 19.5948C44.9671 19.6864 44.988 19.7716 45.0191 19.8505C45.05 19.9282 45.0906 19.9957 45.1409 20.0528C45.1923 20.1098 45.253 20.1526 45.3228 20.1811C45.3925 20.2084 45.4709 20.217 45.5579 20.2068C45.6438 20.1968 45.7169 20.1704 45.7773 20.1278C45.8386 20.084 45.887 20.0285 45.9227 19.9613C45.9583 19.8941 45.9821 19.8191 45.9942 19.7363C46.0072 19.6523 46.0083 19.5645 45.9975 19.4729L45.9929 19.4339C45.9822 19.3435 45.9609 19.2594 45.9288 19.1818C45.8977 19.1029 45.8565 19.035 45.8051 18.978C45.7547 18.9197 45.6945 18.8763 45.6247 18.8478C45.556 18.8192 45.4781 18.81 45.3911 18.8202C45.3052 18.8302 45.2315 18.8572 45.1702 18.9011C45.1101 18.9448 45.0617 19.0009 45.025 19.0693C44.9894 19.1365 44.9656 19.2121 44.9537 19.296C44.9417 19.3788 44.941 19.4654 44.9517 19.5558ZM46.9644 18.8061L47.1344 20.2491L46.8207 20.2859L46.6045 18.4512L46.9013 18.4164L46.9644 18.8061ZM46.9435 19.271L46.8124 19.2812C46.7987 19.1556 46.8037 19.0375 46.8274 18.927C46.8509 18.8154 46.8908 18.7162 46.947 18.6294C47.0033 18.5426 47.0741 18.4724 47.1595 18.4189C47.2458 18.364 47.3444 18.3301 47.4552 18.3172C47.5456 18.3066 47.6285 18.3095 47.7038 18.3259C47.7789 18.3412 47.8451 18.3724 47.9022 18.4195C47.9605 18.4666 48.0082 18.5309 48.0453 18.6125C48.0823 18.693 48.1079 18.7937 48.1222 18.9147L48.2638 20.1169L47.9484 20.1538L47.8064 18.9482C47.795 18.8521 47.7718 18.7769 47.7368 18.7226C47.7016 18.6671 47.6553 18.6295 47.598 18.6099C47.5405 18.5891 47.4722 18.5834 47.3931 18.5926C47.3151 18.6018 47.2458 18.6265 47.1852 18.6668C47.1258 18.707 47.0763 18.7586 47.0367 18.8217C46.9983 18.8847 46.9705 18.955 46.9533 19.0326C46.9371 19.109 46.9338 19.1885 46.9435 19.271ZM49.7507 18.375L49.9329 19.9214L49.6192 19.9582L49.403 18.1235L49.7082 18.0877L49.7507 18.375ZM50.2887 18.0094L50.3214 18.3013C50.2947 18.2987 50.2694 18.2982 50.2455 18.2999C50.2227 18.3002 50.1965 18.3022 50.1671 18.3056C50.0948 18.3141 50.0322 18.3329 49.9795 18.3619C49.9268 18.391 49.8836 18.4282 49.8499 18.4734C49.8163 18.5186 49.7915 18.5708 49.7756 18.6299C49.7606 18.6878 49.7537 18.7505 49.7547 18.818L49.6726 18.8792C49.6595 18.7684 49.658 18.6632 49.668 18.5635C49.6792 18.4636 49.7035 18.3736 49.7411 18.2936C49.7785 18.2124 49.8304 18.1468 49.8967 18.0966C49.964 18.0452 50.0473 18.0136 50.1468 18.002C50.1694 17.9993 50.1958 17.9991 50.2258 18.0013C50.2558 18.0024 50.2767 18.0051 50.2887 18.0094ZM51.7819 19.3869L51.6706 18.4424C51.662 18.3701 51.6399 18.309 51.6043 18.2594C51.5696 18.2084 51.5217 18.1716 51.4606 18.149C51.3995 18.1263 51.3265 18.12 51.2418 18.1299C51.1626 18.1392 51.0947 18.1609 51.038 18.195C50.9824 18.229 50.9402 18.2701 50.9115 18.3181C50.8839 18.3661 50.8731 18.4155 50.8791 18.4663L50.5654 18.5031C50.5577 18.4375 50.567 18.3705 50.5933 18.3021C50.6196 18.2337 50.6614 18.1698 50.7185 18.1104C50.7767 18.0497 50.8487 17.9989 50.9344 17.9579C51.0211 17.9157 51.1198 17.888 51.2306 17.8751C51.364 17.8594 51.4843 17.8683 51.5914 17.9016C51.6996 17.9348 51.7879 17.9938 51.8563 18.0786C51.9258 18.1621 51.9686 18.2723 51.9847 18.4091L52.0854 19.2637C52.0926 19.3247 52.1053 19.3891 52.1236 19.4569C52.1431 19.5245 52.1664 19.5819 52.1938 19.6292L52.197 19.6563L51.8697 19.6946C51.8496 19.6603 51.8315 19.6137 51.8154 19.5549C51.7992 19.4949 51.788 19.4389 51.7819 19.3869ZM51.742 18.5819L51.7714 18.8019L51.4543 18.8391C51.365 18.8495 51.2861 18.8662 51.2178 18.8891C51.1493 18.9109 51.0929 18.9387 51.0488 18.9725C51.0046 19.0063 50.9727 19.0462 50.9528 19.092C50.9329 19.1368 50.9263 19.1874 50.9329 19.2439C50.9397 19.3016 50.9589 19.3526 50.9905 19.397C51.0221 19.4415 51.0656 19.4748 51.1209 19.4969C51.1772 19.5179 51.2438 19.5238 51.3207 19.5148C51.4168 19.5036 51.4992 19.4733 51.5679 19.424C51.6366 19.3747 51.6889 19.3181 51.725 19.2543C51.7621 19.1904 51.7791 19.1305 51.776 19.0747L51.9278 19.2099C51.9254 19.2583 51.9102 19.3134 51.8819 19.3752C51.8537 19.4369 51.8133 19.4978 51.7607 19.5578C51.7092 19.6166 51.6454 19.6682 51.5692 19.7126C51.4941 19.7558 51.4068 19.7832 51.3073 19.7949C51.1829 19.8094 51.071 19.7979 50.9714 19.7603C50.873 19.7225 50.793 19.666 50.7314 19.5907C50.6708 19.5141 50.6345 19.425 50.6225 19.3232C50.6109 19.2249 50.6199 19.1362 50.6496 19.0571C50.6791 18.9768 50.7271 18.9076 50.7936 18.8494C50.8599 18.79 50.9425 18.7414 51.0412 18.7035C51.1398 18.6656 51.2519 18.6393 51.3774 18.6246L51.742 18.5819ZM53.1867 17.6804L53.2151 17.9212L52.223 18.0373L52.1947 17.7966L53.1867 17.6804ZM52.4779 17.3113L52.7916 17.2746L53.0068 19.1008C53.0141 19.1629 53.0293 19.2087 53.0522 19.2381C53.0752 19.2675 53.1025 19.2855 53.1342 19.2921C53.1659 19.2987 53.1993 19.3 53.2344 19.2959C53.2604 19.2928 53.2872 19.2874 53.315 19.2796C53.3437 19.2705 53.3652 19.2634 53.3795 19.2582L53.4114 19.5141C53.3874 19.5249 53.3555 19.5361 53.3156 19.5477C53.277 19.5602 53.2294 19.5698 53.1729 19.5764C53.096 19.5854 53.0235 19.5784 52.9555 19.5554C52.8875 19.5325 52.83 19.4876 52.7832 19.4209C52.7374 19.3529 52.7073 19.2579 52.6929 19.1358L52.4779 17.3113ZM54.545 19.4157C54.4172 19.4307 54.2988 19.4228 54.1897 19.392C54.0817 19.36 53.9857 19.3087 53.9017 19.2384C53.8189 19.1678 53.7513 19.0806 53.699 18.9767C53.6466 18.8728 53.6128 18.7565 53.5977 18.6276L53.5893 18.5564C53.5717 18.4072 53.5781 18.2718 53.6084 18.1502C53.6387 18.0274 53.6869 17.9209 53.753 17.8307C53.8192 17.7404 53.8978 17.6687 53.989 17.6157C54.0802 17.5626 54.1772 17.53 54.2801 17.518C54.4112 17.5026 54.5269 17.512 54.6272 17.5461C54.7286 17.5801 54.8147 17.6342 54.8853 17.7084C54.9558 17.7815 55.0122 17.8712 55.0545 17.9774C55.0967 18.0825 55.1254 18.1994 55.1406 18.3283L55.1572 18.469L53.787 18.6295L53.7568 18.3735L54.8133 18.2497L54.8105 18.226C54.7964 18.1451 54.7701 18.068 54.7316 17.9946C54.6943 17.921 54.6416 17.863 54.5736 17.8205C54.5056 17.7781 54.4178 17.7631 54.3104 17.7757C54.2392 17.7841 54.1754 17.807 54.1191 17.8445C54.0627 17.8809 54.0164 17.9311 53.9804 17.9949C53.9444 18.0587 53.9195 18.1344 53.9057 18.2219C53.892 18.3095 53.8916 18.4087 53.9047 18.5194L53.9131 18.5907C53.9233 18.6777 53.9449 18.7583 53.9777 18.8324C54.0115 18.9052 54.0549 18.9677 54.1081 19.0199C54.1623 19.072 54.2248 19.1106 54.2953 19.1355C54.367 19.1604 54.4458 19.1678 54.5317 19.1577C54.6425 19.1447 54.7337 19.1111 54.8053 19.0569C54.8768 19.0027 54.9369 18.9343 54.9857 18.8518L55.1934 18.9805C55.1609 19.0451 55.1173 19.108 55.0626 19.1694C55.008 19.2309 54.938 19.2837 54.8527 19.3281C54.7685 19.3724 54.6659 19.4016 54.545 19.4157ZM55.5967 19.0897C55.5905 19.0366 55.6016 18.99 55.6301 18.95C55.6596 18.9087 55.706 18.8844 55.7694 18.877C55.8327 18.8696 55.8829 18.8826 55.9201 18.916C55.9583 18.9482 55.9805 18.9909 55.9868 19.044C55.9929 19.096 55.9811 19.1421 55.9515 19.1823C55.9229 19.2223 55.877 19.246 55.8137 19.2534C55.7504 19.2608 55.6997 19.2484 55.6615 19.2162C55.6244 19.1839 55.6028 19.1417 55.5967 19.0897ZM55.422 17.5923C55.4157 17.5391 55.4269 17.4926 55.4554 17.4526C55.4849 17.4113 55.5313 17.3869 55.5946 17.3795C55.6579 17.3721 55.7082 17.3851 55.7454 17.4186C55.7835 17.4508 55.8058 17.4935 55.812 17.5466C55.8181 17.5986 55.8064 17.6447 55.7767 17.6848C55.7482 17.7248 55.7023 17.7485 55.639 17.7559C55.5757 17.7634 55.5249 17.751 55.4867 17.7188C55.4497 17.6864 55.4281 17.6443 55.422 17.5923Z" fill="#919191"/>
<path d="M16.657 31.6258L16.7337 32.277L13.4235 32.6646L13.3576 32.105L14.7586 30.1635C14.9115 29.9439 15.0303 29.7558 15.115 29.5992C15.1997 29.4425 15.2556 29.3042 15.2827 29.1841C15.3118 29.0615 15.3198 28.9449 15.3068 28.8341C15.2884 28.6781 15.2429 28.5447 15.1703 28.4341C15.0996 28.3208 15.0049 28.2368 14.8861 28.182C14.7671 28.1249 14.6284 28.1056 14.4701 28.1241C14.287 28.1455 14.1379 28.2031 14.0229 28.2968C13.9078 28.3905 13.8269 28.5111 13.7801 28.6587C13.7331 28.8041 13.7201 28.966 13.7411 29.1446L12.9237 29.2403C12.8899 28.9532 12.9246 28.6833 13.0277 28.4305C13.1306 28.1755 13.2982 27.9634 13.5304 27.7941C13.7623 27.6225 14.0535 27.5162 14.404 27.4752C14.7341 27.4365 15.021 27.4591 15.2647 27.5429C15.5083 27.6266 15.7021 27.7632 15.8459 27.9527C15.992 28.1419 16.0814 28.3755 16.1142 28.6536C16.1323 28.8073 16.1254 28.9628 16.0935 29.1201C16.0616 29.2774 16.0082 29.4373 15.9334 29.5996C15.8605 29.7594 15.7708 29.9223 15.6643 30.0884C15.5576 30.2521 15.4386 30.4196 15.3075 30.5909L14.3778 31.8927L16.657 31.6258ZM17.5437 31.7696C17.5288 31.6429 17.5592 31.5317 17.635 31.4357C17.7105 31.3374 17.8218 31.2797 17.9687 31.2625C18.118 31.245 18.2396 31.2755 18.3337 31.3539C18.4297 31.4297 18.4852 31.5309 18.5001 31.6576C18.515 31.7842 18.4846 31.8955 18.4088 31.9914C18.3353 32.0871 18.2239 32.1437 18.0746 32.1612C17.9277 32.1784 17.8062 32.1491 17.7101 32.0732C17.6141 31.9974 17.5586 31.8962 17.5437 31.7696ZM21.2302 26.7274L21.814 31.6821L20.9966 31.7778L20.5271 27.793L19.3646 28.3451L19.2851 27.6703L21.1318 26.7389L21.2302 26.7274ZM23.196 27.7418L23.1652 27.4807C23.1431 27.293 23.1637 27.1175 23.2269 26.9543C23.2902 26.791 23.3944 26.6539 23.5395 26.5429C23.6846 26.432 23.8668 26.3636 24.0861 26.3379C24.3122 26.3115 24.5076 26.3356 24.6723 26.4103C24.8392 26.4847 24.9724 26.594 25.072 26.7382C25.1715 26.8824 25.2323 27.0484 25.2544 27.236L25.2852 27.4971C25.3068 27.6803 25.2859 27.8535 25.2226 28.0167C25.1616 28.1797 25.0585 28.3167 24.9135 28.4277C24.7706 28.5384 24.5873 28.6068 24.3634 28.6331C24.1419 28.659 23.9465 28.6349 23.7773 28.5607C23.6103 28.4863 23.4771 28.377 23.3776 28.2328C23.2781 28.0886 23.2175 27.9249 23.196 27.7418ZM23.7316 27.4143L23.7624 27.6755C23.773 27.7659 23.8001 27.8498 23.8436 27.9272C23.8894 28.0044 23.9514 28.0636 24.0296 28.1049C24.1078 28.1461 24.2 28.1605 24.3063 28.1481C24.4148 28.1354 24.5001 28.1002 24.5621 28.0425C24.6263 27.9846 24.6706 27.9129 24.6949 27.8276C24.7192 27.7422 24.726 27.6543 24.7154 27.5639L24.6846 27.3027C24.6737 27.21 24.6453 27.1251 24.5996 27.048C24.5558 26.9683 24.4959 26.9077 24.42 26.8661C24.344 26.8246 24.2518 26.8102 24.1433 26.8229C24.0393 26.8351 23.954 26.8703 23.8875 26.9285C23.8233 26.9864 23.778 27.0594 23.7517 27.1472C23.7274 27.2326 23.7207 27.3216 23.7316 27.4143ZM25.9045 30.2438L25.8734 29.9793C25.8515 29.7939 25.8722 29.6196 25.9355 29.4563C26.0011 29.2928 26.1064 29.1555 26.2515 29.0446C26.3966 28.9336 26.5788 28.8653 26.7981 28.8396C27.0242 28.8131 27.2196 28.8372 27.3843 28.9119C27.5512 28.9863 27.6833 29.0958 27.7805 29.2403C27.8801 29.3845 27.9407 29.5493 27.9626 29.7347L27.9938 29.9992C28.0156 30.1846 27.9949 30.3589 27.9316 30.5222C27.8706 30.6852 27.7687 30.822 27.6258 30.9327C27.483 31.0434 27.3008 31.1118 27.0792 31.1377C26.8554 31.1639 26.6588 31.1399 26.4897 31.0658C26.3227 30.9914 26.1884 30.8822 26.0866 30.7382C25.9871 30.594 25.9264 30.4292 25.9045 30.2438ZM26.4432 29.9126L26.4743 30.1771C26.485 30.2675 26.5132 30.3513 26.559 30.4285C26.607 30.5054 26.6702 30.5656 26.7487 30.6091C26.8269 30.6504 26.9169 30.6651 27.0187 30.6531C27.134 30.6396 27.2238 30.6039 27.288 30.546C27.352 30.4858 27.394 30.4144 27.414 30.3318C27.4361 30.2467 27.4417 30.1578 27.4308 30.0651L27.3996 29.8006C27.3887 29.7079 27.3603 29.623 27.3145 29.5458C27.271 29.4684 27.2102 29.4091 27.132 29.3678C27.056 29.3263 26.9638 29.3118 26.8552 29.3246C26.749 29.337 26.6637 29.3722 26.5995 29.4301C26.5353 29.4881 26.4898 29.5599 26.4633 29.6455C26.4389 29.7309 26.4322 29.8199 26.4432 29.9126ZM26.7654 26.8115L24.8088 30.9532L24.3632 30.7613L26.3199 26.6196L26.7654 26.8115Z" fill="#001E41"/>
<path d="M13.3551 58.9929L9.80921 54.9945L10.7355 62.8551L104.756 51.8452L104.2 47.1289L100.512 41.9212L98.277 49.0485L94.5886 43.8408L91.9261 47.3402L88.0952 40.9232L86.1453 50.4691L82.5994 46.4707L79.937 49.9701L76.106 43.5531L73.7286 49.4711L70.3252 46.6821L67.9478 52.6001L64.1168 46.1831L61.7394 52.1011L56.9109 37.2189L55.5311 51.6021L51.2726 41.5571L49.7502 54.731L46.2043 50.7326L41.9743 40.9295L40.1384 51.4429L36.336 45.2678L33.6451 48.5253L31.4102 55.6526L28.0067 52.8636L25.4868 57.5723L21.3709 48.7366L19.136 55.8639L15.4475 50.6563L13.3551 58.9929Z" fill="url(#paint0_linear_1_862)"/>
<path d="M9.82792 55.1562L13.3755 59.1575L15.4685 50.8151L19.1586 56.0266L21.3942 48.8943L25.5122 57.7363L28.033 53.0244L31.438 55.8155L33.6736 48.6832L36.3655 45.4235L40.1698 51.6031L42.0061 41.0824L46.2381 50.8925L49.7857 54.8939L51.3083 41.7107L55.5689 51.7629L56.9488 37.3696L61.7798 52.2625L64.158 46.3404L67.9908 52.762L70.369 46.8399L73.774 49.6311L76.1522 43.709L79.985 50.1306L82.6484 46.6289L86.1959 50.6302L88.1463 41.0776L91.9791 47.4992L94.6425 43.9975L98.3327 49.209L100.568 42.0767L104.258 47.2882" stroke="#98CB56" stroke-width="0.582784" stroke-linecap="round"/>
</g>
</g>
</g>
</g>
<defs>
<filter id="filter0_d_1_862" x="-14.4015" y="-12.1922" width="138.472" height="97.4493" filterUnits="userSpaceOnUse" color-interpolation-filters="sRGB">
<feFlood flood-opacity="0" result="BackgroundImageFix"/>
<feColorMatrix in="SourceAlpha" type="matrix" values="0 0 0 0 0 0 0 0 0 0 0 0 0 0 0 0 0 0 127 0" result="hardAlpha"/>
<feOffset dy="3.04798"/>
<feGaussianBlur stdDeviation="7.61995"/>
<feComposite in2="hardAlpha" operator="out"/>
<feColorMatrix type="matrix" values="0 0 0 0 0 0 0 0 0 0 0 0 0 0 0 0 0 0 0.12 0"/>
<feBlend mode="normal" in2="BackgroundImageFix" result="effect1_dropShadow_1_862"/>
<feBlend mode="normal" in="SourceGraphic" in2="effect1_dropShadow_1_862" result="shape"/>
</filter>
<filter id="filter1_d_1_862" x="-2.59954" y="-1.91865" width="115.083" height="74.0467" filterUnits="userSpaceOnUse" color-interpolation-filters="sRGB">
<feFlood flood-opacity="0" result="BackgroundImageFix"/>
<feColorMatrix in="SourceAlpha" type="matrix" values="0 0 0 0 0 0 0 0 0 0 0 0 0 0 0 0 0 0 127 0" result="hardAlpha"/>
<feOffset dy="1.54552"/>
<feGaussianBlur stdDeviation="3.8638"/>
<feComposite in2="hardAlpha" operator="out"/>
<feColorMatrix type="matrix" values="0 0 0 0 0 0 0 0 0 0 0 0 0 0 0 0 0 0 0.08 0"/>
<feBlend mode="normal" in2="BackgroundImageFix" result="effect1_dropShadow_1_862"/>
<feBlend mode="normal" in="SourceGraphic" in2="effect1_dropShadow_1_862" result="shape"/>
</filter>
<linearGradient id="paint0_linear_1_862" x1="55.0338" y1="35.4718" x2="57.5814" y2="57.2279" gradientUnits="userSpaceOnUse">
<stop stop-color="#98CB56"/>
<stop offset="0.0001" stop-color="#98CB56" stop-opacity="0.46"/>
<stop offset="1" stop-color="#98CB56" stop-opacity="0.1"/>
</linearGradient>
<clipPath id="clip0_1_862">
<rect width="102.195" height="55.4649" rx="3.8638" transform="matrix(0.993213 -0.116306 0.11703 0.993128 0.838379 11.8855)" fill="white"/>
</clipPath>
<clipPath id="clip1_1_862">
<rect width="94.6631" height="47.9111" rx="2.31828" transform="matrix(0.993213 -0.116306 0.11703 0.993128 5.12805 15.2732)" fill="white"/>
</clipPath>
</defs>
</svg>
