<svg width="74" height="9" viewBox="0 0 74 9" fill="none" xmlns="http://www.w3.org/2000/svg">
<path d="M2.85254 4.24072H1.14307V3.55078H2.85254C3.18359 3.55078 3.45166 3.49805 3.65674 3.39258C3.86182 3.28711 4.01123 3.14062 4.10498 2.95312C4.20166 2.76562 4.25 2.55176 4.25 2.31152C4.25 2.0918 4.20166 1.88525 4.10498 1.69189C4.01123 1.49854 3.86182 1.34326 3.65674 1.22607C3.45166 1.10596 3.18359 1.0459 2.85254 1.0459H1.34082V6.75H0.492676V0.351562H2.85254C3.33594 0.351562 3.74463 0.435059 4.07861 0.602051C4.4126 0.769043 4.66602 1.00049 4.83887 1.29639C5.01172 1.58936 5.09814 1.9248 5.09814 2.30273C5.09814 2.71289 5.01172 3.06299 4.83887 3.35303C4.66602 3.64307 4.4126 3.86426 4.07861 4.0166C3.74463 4.16602 3.33594 4.24072 2.85254 4.24072ZM5.77051 4.42529V4.32422C5.77051 3.98145 5.82031 3.66357 5.91992 3.37061C6.01953 3.07471 6.16309 2.81836 6.35059 2.60156C6.53809 2.38184 6.76514 2.21191 7.03174 2.0918C7.29834 1.96875 7.59717 1.90723 7.92822 1.90723C8.26221 1.90723 8.5625 1.96875 8.8291 2.0918C9.09863 2.21191 9.32715 2.38184 9.51465 2.60156C9.70508 2.81836 9.8501 3.07471 9.94971 3.37061C10.0493 3.66357 10.0991 3.98145 10.0991 4.32422V4.42529C10.0991 4.76807 10.0493 5.08594 9.94971 5.37891C9.8501 5.67188 9.70508 5.92822 9.51465 6.14795C9.32715 6.36475 9.1001 6.53467 8.8335 6.65771C8.56982 6.77783 8.271 6.83789 7.93701 6.83789C7.60303 6.83789 7.30273 6.77783 7.03613 6.65771C6.76953 6.53467 6.54102 6.36475 6.35059 6.14795C6.16309 5.92822 6.01953 5.67188 5.91992 5.37891C5.82031 5.08594 5.77051 4.76807 5.77051 4.42529ZM6.5835 4.32422V4.42529C6.5835 4.6626 6.61133 4.88672 6.66699 5.09766C6.72266 5.30566 6.80615 5.49023 6.91748 5.65137C7.03174 5.8125 7.17383 5.93994 7.34375 6.03369C7.51367 6.12451 7.71143 6.16992 7.93701 6.16992C8.15967 6.16992 8.35449 6.12451 8.52148 6.03369C8.69141 5.93994 8.83203 5.8125 8.94336 5.65137C9.05469 5.49023 9.13818 5.30566 9.19385 5.09766C9.25244 4.88672 9.28174 4.6626 9.28174 4.42529V4.32422C9.28174 4.08984 9.25244 3.86865 9.19385 3.66064C9.13818 3.44971 9.05322 3.26367 8.93896 3.10254C8.82764 2.93848 8.68701 2.80957 8.51709 2.71582C8.3501 2.62207 8.15381 2.5752 7.92822 2.5752C7.70557 2.5752 7.50928 2.62207 7.33936 2.71582C7.17236 2.80957 7.03174 2.93848 6.91748 3.10254C6.80615 3.26367 6.72266 3.44971 6.66699 3.66064C6.61133 3.86865 6.5835 4.08984 6.5835 4.32422ZM12.3228 5.90625L13.5444 1.99512H14.0806L13.9751 2.77295L12.7314 6.75H12.2085L12.3228 5.90625ZM11.501 1.99512L12.5425 5.9502L12.6172 6.75H12.0679L10.688 1.99512H11.501ZM15.2495 5.91943L16.2427 1.99512H17.0513L15.6714 6.75H15.1265L15.2495 5.91943ZM14.1992 1.99512L15.3945 5.84033L15.5308 6.75H15.0122L13.7334 2.76416L13.6279 1.99512H14.1992ZM19.8594 6.83789C19.5283 6.83789 19.228 6.78223 18.9585 6.6709C18.6919 6.55664 18.4619 6.39697 18.2686 6.19189C18.0781 5.98682 17.9316 5.74365 17.8291 5.4624C17.7266 5.18115 17.6753 4.87354 17.6753 4.53955V4.35498C17.6753 3.96826 17.7324 3.62402 17.8467 3.32227C17.9609 3.01758 18.1162 2.75977 18.3125 2.54883C18.5088 2.33789 18.7314 2.17822 18.9805 2.06982C19.2295 1.96143 19.4873 1.90723 19.7539 1.90723C20.0938 1.90723 20.3867 1.96582 20.6328 2.08301C20.8818 2.2002 21.0854 2.36426 21.2437 2.5752C21.4019 2.7832 21.519 3.0293 21.5952 3.31348C21.6714 3.59473 21.7095 3.90234 21.7095 4.23633V4.60107H18.1587V3.9375H20.8965V3.87598C20.8848 3.66504 20.8408 3.45996 20.7646 3.26074C20.6914 3.06152 20.5742 2.89746 20.4131 2.76855C20.252 2.63965 20.0322 2.5752 19.7539 2.5752C19.5693 2.5752 19.3994 2.61475 19.2441 2.69385C19.0889 2.77002 18.9556 2.88428 18.8442 3.03662C18.7329 3.18896 18.6465 3.375 18.585 3.59473C18.5234 3.81445 18.4927 4.06787 18.4927 4.35498V4.53955C18.4927 4.76514 18.5234 4.97754 18.585 5.17676C18.6494 5.37305 18.7417 5.5459 18.8618 5.69531C18.9849 5.84473 19.1328 5.96191 19.3057 6.04688C19.4814 6.13184 19.6807 6.17432 19.9033 6.17432C20.1904 6.17432 20.4336 6.11572 20.6328 5.99854C20.832 5.88135 21.0063 5.72461 21.1558 5.52832L21.6479 5.91943C21.5454 6.07471 21.415 6.22266 21.2568 6.36328C21.0986 6.50391 20.9038 6.61816 20.6724 6.70605C20.4438 6.79395 20.1729 6.83789 19.8594 6.83789ZM23.4717 2.74219V6.75H22.6587V1.99512H23.4497L23.4717 2.74219ZM24.957 1.96875L24.9526 2.72461C24.8853 2.70996 24.8208 2.70117 24.7593 2.69824C24.7007 2.69238 24.6333 2.68945 24.5571 2.68945C24.3696 2.68945 24.2041 2.71875 24.0605 2.77734C23.917 2.83594 23.7954 2.91797 23.6958 3.02344C23.5962 3.12891 23.5171 3.25488 23.4585 3.40137C23.4028 3.54492 23.3662 3.70312 23.3486 3.87598L23.1201 4.00781C23.1201 3.7207 23.1479 3.45117 23.2036 3.19922C23.2622 2.94727 23.3516 2.72461 23.4717 2.53125C23.5918 2.33496 23.7441 2.18262 23.9287 2.07422C24.1162 1.96289 24.3389 1.90723 24.5967 1.90723C24.6553 1.90723 24.7227 1.91455 24.7988 1.9292C24.875 1.94092 24.9277 1.9541 24.957 1.96875ZM27.5938 6.83789C27.2627 6.83789 26.9624 6.78223 26.6929 6.6709C26.4263 6.55664 26.1963 6.39697 26.0029 6.19189C25.8125 5.98682 25.666 5.74365 25.5635 5.4624C25.4609 5.18115 25.4097 4.87354 25.4097 4.53955V4.35498C25.4097 3.96826 25.4668 3.62402 25.5811 3.32227C25.6953 3.01758 25.8506 2.75977 26.0469 2.54883C26.2432 2.33789 26.4658 2.17822 26.7148 2.06982C26.9639 1.96143 27.2217 1.90723 27.4883 1.90723C27.8281 1.90723 28.1211 1.96582 28.3672 2.08301C28.6162 2.2002 28.8198 2.36426 28.978 2.5752C29.1362 2.7832 29.2534 3.0293 29.3296 3.31348C29.4058 3.59473 29.4438 3.90234 29.4438 4.23633V4.60107H25.8931V3.9375H28.6309V3.87598C28.6191 3.66504 28.5752 3.45996 28.499 3.26074C28.4258 3.06152 28.3086 2.89746 28.1475 2.76855C27.9863 2.63965 27.7666 2.5752 27.4883 2.5752C27.3037 2.5752 27.1338 2.61475 26.9785 2.69385C26.8232 2.77002 26.6899 2.88428 26.5786 3.03662C26.4673 3.18896 26.3809 3.375 26.3193 3.59473C26.2578 3.81445 26.2271 4.06787 26.2271 4.35498V4.53955C26.2271 4.76514 26.2578 4.97754 26.3193 5.17676C26.3838 5.37305 26.4761 5.5459 26.5962 5.69531C26.7192 5.84473 26.8672 5.96191 27.04 6.04688C27.2158 6.13184 27.415 6.17432 27.6377 6.17432C27.9248 6.17432 28.168 6.11572 28.3672 5.99854C28.5664 5.88135 28.7407 5.72461 28.8901 5.52832L29.3823 5.91943C29.2798 6.07471 29.1494 6.22266 28.9912 6.36328C28.833 6.50391 28.6382 6.61816 28.4067 6.70605C28.1782 6.79395 27.9072 6.83789 27.5938 6.83789ZM33.3901 5.82715V0H34.2075V6.75H33.4604L33.3901 5.82715ZM30.1909 4.42529V4.33301C30.1909 3.96973 30.2349 3.64014 30.3228 3.34424C30.4136 3.04541 30.541 2.78906 30.7051 2.5752C30.8721 2.36133 31.0698 2.19727 31.2983 2.08301C31.5298 1.96582 31.7876 1.90723 32.0718 1.90723C32.3706 1.90723 32.6313 1.95996 32.854 2.06543C33.0796 2.16797 33.27 2.31885 33.4253 2.51807C33.5835 2.71436 33.708 2.95166 33.7988 3.22998C33.8896 3.5083 33.9526 3.82324 33.9878 4.1748V4.5791C33.9556 4.92773 33.8926 5.24121 33.7988 5.51953C33.708 5.79785 33.5835 6.03516 33.4253 6.23145C33.27 6.42773 33.0796 6.57861 32.854 6.68408C32.6284 6.78662 32.3647 6.83789 32.063 6.83789C31.7847 6.83789 31.5298 6.77783 31.2983 6.65771C31.0698 6.5376 30.8721 6.36914 30.7051 6.15234C30.541 5.93555 30.4136 5.68066 30.3228 5.3877C30.2349 5.0918 30.1909 4.771 30.1909 4.42529ZM31.0083 4.33301V4.42529C31.0083 4.6626 31.0317 4.88525 31.0786 5.09326C31.1284 5.30127 31.2046 5.48438 31.3071 5.64258C31.4097 5.80078 31.54 5.92529 31.6982 6.01611C31.8564 6.104 32.0454 6.14795 32.2651 6.14795C32.5347 6.14795 32.7559 6.09082 32.9287 5.97656C33.1045 5.8623 33.2451 5.71143 33.3506 5.52393C33.4561 5.33643 33.5381 5.13281 33.5967 4.91309V3.854C33.5615 3.69287 33.5103 3.5376 33.4429 3.38818C33.3784 3.23584 33.2935 3.10107 33.188 2.98389C33.0854 2.86377 32.958 2.76855 32.8057 2.69824C32.6562 2.62793 32.479 2.59277 32.2739 2.59277C32.0513 2.59277 31.8594 2.63965 31.6982 2.7334C31.54 2.82422 31.4097 2.9502 31.3071 3.11133C31.2046 3.26953 31.1284 3.4541 31.0786 3.66504C31.0317 3.87305 31.0083 4.0957 31.0083 4.33301ZM37.7012 0H38.5186V5.82715L38.4482 6.75H37.7012V0ZM41.731 4.33301V4.42529C41.731 4.771 41.6899 5.0918 41.6079 5.3877C41.5259 5.68066 41.4058 5.93555 41.2476 6.15234C41.0894 6.36914 40.896 6.5376 40.6675 6.65771C40.439 6.77783 40.1768 6.83789 39.8809 6.83789C39.5791 6.83789 39.314 6.78662 39.0854 6.68408C38.8599 6.57861 38.6694 6.42773 38.5142 6.23145C38.3589 6.03516 38.2344 5.79785 38.1406 5.51953C38.0498 5.24121 37.9868 4.92773 37.9517 4.5791V4.1748C37.9868 3.82324 38.0498 3.5083 38.1406 3.22998C38.2344 2.95166 38.3589 2.71436 38.5142 2.51807C38.6694 2.31885 38.8599 2.16797 39.0854 2.06543C39.311 1.95996 39.5732 1.90723 39.8721 1.90723C40.1709 1.90723 40.436 1.96582 40.6675 2.08301C40.8989 2.19727 41.0923 2.36133 41.2476 2.5752C41.4058 2.78906 41.5259 3.04541 41.6079 3.34424C41.6899 3.64014 41.731 3.96973 41.731 4.33301ZM40.9136 4.42529V4.33301C40.9136 4.0957 40.8916 3.87305 40.8477 3.66504C40.8037 3.4541 40.7334 3.26953 40.6367 3.11133C40.54 2.9502 40.4126 2.82422 40.2544 2.7334C40.0962 2.63965 39.9014 2.59277 39.6699 2.59277C39.4648 2.59277 39.2861 2.62793 39.1338 2.69824C38.9844 2.76855 38.8569 2.86377 38.7515 2.98389C38.646 3.10107 38.5596 3.23584 38.4922 3.38818C38.4277 3.5376 38.3794 3.69287 38.3472 3.854V4.91309C38.394 5.11816 38.4702 5.31592 38.5757 5.50635C38.6841 5.69385 38.8276 5.84766 39.0063 5.96777C39.188 6.08789 39.4121 6.14795 39.6787 6.14795C39.8984 6.14795 40.0859 6.104 40.2412 6.01611C40.3994 5.92529 40.5269 5.80078 40.6235 5.64258C40.7231 5.48438 40.7964 5.30127 40.8433 5.09326C40.8901 4.88525 40.9136 4.6626 40.9136 4.42529ZM44.0425 6.25781L45.3652 1.99512H46.2354L44.3281 7.48389C44.2842 7.60107 44.2256 7.72705 44.1523 7.86182C44.082 7.99951 43.9912 8.12988 43.8799 8.25293C43.7686 8.37598 43.6338 8.47559 43.4756 8.55176C43.3203 8.63086 43.1343 8.67041 42.9175 8.67041C42.853 8.67041 42.771 8.66162 42.6714 8.64404C42.5718 8.62646 42.5015 8.61182 42.4604 8.6001L42.4561 7.94092C42.4795 7.94385 42.5161 7.94678 42.5659 7.94971C42.6187 7.95557 42.6553 7.9585 42.6758 7.9585C42.8604 7.9585 43.0171 7.93359 43.146 7.88379C43.2749 7.83691 43.3833 7.75635 43.4712 7.64209C43.562 7.53076 43.6396 7.37695 43.7041 7.18066L44.0425 6.25781ZM43.0713 1.99512L44.3062 5.68652L44.5171 6.54346L43.9326 6.84229L42.1836 1.99512H43.0713ZM51.6846 4.24072H49.9751V3.55078H51.6846C52.0156 3.55078 52.2837 3.49805 52.4888 3.39258C52.6938 3.28711 52.8433 3.14062 52.937 2.95312C53.0337 2.76562 53.082 2.55176 53.082 2.31152C53.082 2.0918 53.0337 1.88525 52.937 1.69189C52.8433 1.49854 52.6938 1.34326 52.4888 1.22607C52.2837 1.10596 52.0156 1.0459 51.6846 1.0459H50.1729V6.75H49.3247V0.351562H51.6846C52.168 0.351562 52.5767 0.435059 52.9106 0.602051C53.2446 0.769043 53.498 1.00049 53.6709 1.29639C53.8438 1.58936 53.9302 1.9248 53.9302 2.30273C53.9302 2.71289 53.8438 3.06299 53.6709 3.35303C53.498 3.64307 53.2446 3.86426 52.9106 4.0166C52.5767 4.16602 52.168 4.24072 51.6846 4.24072ZM55.7627 0V6.75H54.9453V0H55.7627ZM59.041 6.83789C58.71 6.83789 58.4097 6.78223 58.1401 6.6709C57.8735 6.55664 57.6436 6.39697 57.4502 6.19189C57.2598 5.98682 57.1133 5.74365 57.0107 5.4624C56.9082 5.18115 56.8569 4.87354 56.8569 4.53955V4.35498C56.8569 3.96826 56.9141 3.62402 57.0283 3.32227C57.1426 3.01758 57.2979 2.75977 57.4941 2.54883C57.6904 2.33789 57.9131 2.17822 58.1621 2.06982C58.4111 1.96143 58.6689 1.90723 58.9355 1.90723C59.2754 1.90723 59.5684 1.96582 59.8145 2.08301C60.0635 2.2002 60.2671 2.36426 60.4253 2.5752C60.5835 2.7832 60.7007 3.0293 60.7769 3.31348C60.853 3.59473 60.8911 3.90234 60.8911 4.23633V4.60107H57.3403V3.9375H60.0781V3.87598C60.0664 3.66504 60.0225 3.45996 59.9463 3.26074C59.873 3.06152 59.7559 2.89746 59.5947 2.76855C59.4336 2.63965 59.2139 2.5752 58.9355 2.5752C58.751 2.5752 58.5811 2.61475 58.4258 2.69385C58.2705 2.77002 58.1372 2.88428 58.0259 3.03662C57.9146 3.18896 57.8281 3.375 57.7666 3.59473C57.7051 3.81445 57.6743 4.06787 57.6743 4.35498V4.53955C57.6743 4.76514 57.7051 4.97754 57.7666 5.17676C57.8311 5.37305 57.9233 5.5459 58.0435 5.69531C58.1665 5.84473 58.3145 5.96191 58.4873 6.04688C58.6631 6.13184 58.8623 6.17432 59.085 6.17432C59.3721 6.17432 59.6152 6.11572 59.8145 5.99854C60.0137 5.88135 60.188 5.72461 60.3374 5.52832L60.8296 5.91943C60.7271 6.07471 60.5967 6.22266 60.4385 6.36328C60.2803 6.50391 60.0854 6.61816 59.854 6.70605C59.6255 6.79395 59.3545 6.83789 59.041 6.83789ZM62.6533 2.74219V6.75H61.8403V1.99512H62.6313L62.6533 2.74219ZM64.1387 1.96875L64.1343 2.72461C64.0669 2.70996 64.0024 2.70117 63.9409 2.69824C63.8823 2.69238 63.8149 2.68945 63.7388 2.68945C63.5513 2.68945 63.3857 2.71875 63.2422 2.77734C63.0986 2.83594 62.9771 2.91797 62.8774 3.02344C62.7778 3.12891 62.6987 3.25488 62.6401 3.40137C62.5845 3.54492 62.5479 3.70312 62.5303 3.87598L62.3018 4.00781C62.3018 3.7207 62.3296 3.45117 62.3853 3.19922C62.4438 2.94727 62.5332 2.72461 62.6533 2.53125C62.7734 2.33496 62.9258 2.18262 63.1104 2.07422C63.2979 1.96289 63.5205 1.90723 63.7783 1.90723C63.8369 1.90723 63.9043 1.91455 63.9805 1.9292C64.0566 1.94092 64.1094 1.9541 64.1387 1.96875ZM67.7993 5.82715V0H68.6167V6.75H67.8696L67.7993 5.82715ZM64.6001 4.42529V4.33301C64.6001 3.96973 64.644 3.64014 64.7319 3.34424C64.8228 3.04541 64.9502 2.78906 65.1143 2.5752C65.2812 2.36133 65.479 2.19727 65.7075 2.08301C65.939 1.96582 66.1968 1.90723 66.481 1.90723C66.7798 1.90723 67.0405 1.95996 67.2632 2.06543C67.4888 2.16797 67.6792 2.31885 67.8345 2.51807C67.9927 2.71436 68.1172 2.95166 68.208 3.22998C68.2988 3.5083 68.3618 3.82324 68.397 4.1748V4.5791C68.3647 4.92773 68.3018 5.24121 68.208 5.51953C68.1172 5.79785 67.9927 6.03516 67.8345 6.23145C67.6792 6.42773 67.4888 6.57861 67.2632 6.68408C67.0376 6.78662 66.7739 6.83789 66.4722 6.83789C66.1938 6.83789 65.939 6.77783 65.7075 6.65771C65.479 6.5376 65.2812 6.36914 65.1143 6.15234C64.9502 5.93555 64.8228 5.68066 64.7319 5.3877C64.644 5.0918 64.6001 4.771 64.6001 4.42529ZM65.4175 4.33301V4.42529C65.4175 4.6626 65.4409 4.88525 65.4878 5.09326C65.5376 5.30127 65.6138 5.48438 65.7163 5.64258C65.8188 5.80078 65.9492 5.92529 66.1074 6.01611C66.2656 6.104 66.4546 6.14795 66.6743 6.14795C66.9438 6.14795 67.165 6.09082 67.3379 5.97656C67.5137 5.8623 67.6543 5.71143 67.7598 5.52393C67.8652 5.33643 67.9473 5.13281 68.0059 4.91309V3.854C67.9707 3.69287 67.9194 3.5376 67.8521 3.38818C67.7876 3.23584 67.7026 3.10107 67.5972 2.98389C67.4946 2.86377 67.3672 2.76855 67.2148 2.69824C67.0654 2.62793 66.8882 2.59277 66.6831 2.59277C66.4604 2.59277 66.2686 2.63965 66.1074 2.7334C65.9492 2.82422 65.8188 2.9502 65.7163 3.11133C65.6138 3.26953 65.5376 3.4541 65.4878 3.66504C65.4409 3.87305 65.4175 4.0957 65.4175 4.33301ZM71.2183 6.25781L72.541 1.99512H73.4111L71.5039 7.48389C71.46 7.60107 71.4014 7.72705 71.3281 7.86182C71.2578 7.99951 71.167 8.12988 71.0557 8.25293C70.9443 8.37598 70.8096 8.47559 70.6514 8.55176C70.4961 8.63086 70.3101 8.67041 70.0933 8.67041C70.0288 8.67041 69.9468 8.66162 69.8472 8.64404C69.7476 8.62646 69.6772 8.61182 69.6362 8.6001L69.6318 7.94092C69.6553 7.94385 69.6919 7.94678 69.7417 7.94971C69.7944 7.95557 69.8311 7.9585 69.8516 7.9585C70.0361 7.9585 70.1929 7.93359 70.3218 7.88379C70.4507 7.83691 70.5591 7.75635 70.647 7.64209C70.7378 7.53076 70.8154 7.37695 70.8799 7.18066L71.2183 6.25781ZM70.2471 1.99512L71.4819 5.68652L71.6929 6.54346L71.1084 6.84229L69.3594 1.99512H70.2471Z" fill="#BDBDBD"/>
<path d="M48.582 7.62891H73.521V8.06836H48.582V7.62891Z" fill="#BDBDBD"/>
</svg>
